<?xml version="1.0" standalone="no"?>
<!DOCTYPE svg PUBLIC "-//W3C//DTD SVG 20010904//EN"
 "http://www.w3.org/TR/2001/REC-SVG-20010904/DTD/svg10.dtd">
<svg version="1.0" xmlns="http://www.w3.org/2000/svg"
 width="512.000000pt" height="512.000000pt" viewBox="0 0 512.000000 512.000000"
 preserveAspectRatio="xMidYMid meet">

<g transform="translate(0.000000,512.000000) scale(0.100000,-0.100000)"
fill="#000000" stroke="none">
<path d="M2170 5110 c-371 -17 -710 -74 -995 -166 -316 -102 -606 -300 -781
-533 -35 -47 -91 -140 -123 -206 -65 -130 -169 -424 -194 -546 -51 -244 -70
-546 -70 -1099 0 -741 28 -1003 142 -1352 120 -364 285 -596 571 -801 298
-212 745 -344 1315 -388 214 -17 928 -17 1090 -1 567 56 988 185 1275 389 121
87 302 266 369 366 79 118 146 264 206 448 92 284 119 480 136 1009 17 535 -8
1107 -62 1394 -27 144 -116 417 -178 544 -118 241 -285 424 -534 586 -278 181
-707 303 -1224 346 -169 14 -732 20 -943 10z m611 -1031 c435 -44 813 -230
924 -454 76 -155 0 -366 -146 -405 -111 -30 -214 0 -384 109 -49 32 -113 70
-142 85 -82 41 -219 76 -332 85 -256 20 -438 -34 -592 -177 -189 -175 -289
-438 -289 -761 0 -483 217 -829 579 -922 98 -25 276 -27 380 -4 262 60 431
216 492 453 10 41 19 97 19 124 l0 48 -237 0 c-131 0 -255 5 -275 10 -63 18
-129 70 -162 130 -28 50 -31 63 -31 145 0 69 5 99 19 129 27 53 80 104 135
130 45 20 58 21 501 21 491 0 501 -1 580 -54 100 -67 137 -182 127 -401 -11
-233 -53 -412 -142 -598 -71 -147 -140 -247 -250 -357 -178 -180 -395 -293
-667 -347 -159 -31 -436 -31 -585 0 -280 60 -499 177 -693 372 -269 268 -420
629 -437 1045 -19 460 127 882 408 1179 302 319 722 464 1200 415z"/>
</g>
</svg>
